<?xml version="1.0" encoding="UTF-8" standalone="no"?> <svg xmlns="http://www.w3.org/2000/svg" viewBox="0 0 64 64"><title>heart-emoji-emotion-shy-happy-smile</title><g id="_03_shy" data-name="03 shy"><path d="M63.967,17.282l.033.207a31.419,31.419,0,0,1-8,20.847L33.5,63.345a2.048,2.048,0,0,1-3,0L8,38.336A31.5,31.5,0,0,1,0,17.5a1.477,1.477,0,0,0,.022-.219C.309,7.589,7.812,0,17.1,0A16.955,16.955,0,0,1,31.1,7.589a1.112,1.112,0,0,0,1.81,0A16.955,16.955,0,0,1,46.9,0C56.188,0,63.691,7.589,63.967,17.282Z" style="fill:#ff6973"/><path d="M37.54,58.85,33.5,63.34a2.035,2.035,0,0,1-3,0L8,38.34A31.507,31.507,0,0,1,0,17.5a1.5,1.5,0,0,0,.02-.22A18.137,18.137,0,0,1,5.16,5.03a46.289,46.289,0,0,0,10.32,27.2l3.44,4.14v.01L29.89,49.62h.01Z" style="fill:#313632;opacity:0.30000000000000004"/><path d="M49.457,25.181a2.188,2.188,0,0,0,.728-1.782c0-2.828-3.355-8.267-7.934-8.267s-7.934,5.439-7.934,8.267a2.182,2.182,0,0,0,.717,1.782c.872.7,2.031.391,3.5,0a14.151,14.151,0,0,1,3.719-.632,14.311,14.311,0,0,1,3.719.632,9.223,9.223,0,0,0,2.184.414A2.017,2.017,0,0,0,49.457,25.181Z" style="fill:#fffeed"/><path d="M28.966,25.181a2.182,2.182,0,0,0,.717-1.782c0-2.828-3.344-8.267-7.934-8.267s-7.934,5.439-7.934,8.267a2.188,2.188,0,0,0,.728,1.782c.872.7,2.031.391,3.487,0a14.311,14.311,0,0,1,3.719-.632,14.316,14.316,0,0,1,3.73.632,9.214,9.214,0,0,0,2.184.414A2.037,2.037,0,0,0,28.966,25.181Z" style="fill:#fffeed"/><path d="M42.279,18a2.2,2.2,0,1,1-.022,0Z" style="fill:#c1215e"/><path d="M21.771,18a2.285,2.285,0,0,1,0,4.566,2.245,2.245,0,0,1-2.191-2.283A2.213,2.213,0,0,1,21.749,18Z" style="fill:#c1215e"/><path d="M54.566,26.757a1.165,1.165,0,0,1,.485,1.541l-2.207,4.6a1.079,1.079,0,0,1-.982.632,1,1,0,0,1-.5-.126,1.164,1.164,0,0,1-.486-1.541l2.207-4.6A1.075,1.075,0,0,1,54.566,26.757Z" style="fill:#ffe684"/><path d="M50.152,26.757a1.165,1.165,0,0,1,.485,1.541L48.43,32.9a1.078,1.078,0,0,1-.982.632,1,1,0,0,1-.5-.126,1.164,1.164,0,0,1-.486-1.541l2.207-4.6A1.075,1.075,0,0,1,50.152,26.757Z" style="fill:#ffe684"/><path d="M45.738,26.757a1.164,1.164,0,0,1,.485,1.541l-2.206,4.6a1.08,1.08,0,0,1-.983.632,1,1,0,0,1-.5-.126,1.165,1.165,0,0,1-.486-1.541l2.207-4.6A1.075,1.075,0,0,1,45.738,26.757Z" style="fill:#ffe684"/><path d="M21.948,31.862a1.165,1.165,0,0,1-.486,1.541,1,1,0,0,1-.5.126,1.08,1.08,0,0,1-.983-.632l-2.206-4.6a1.164,1.164,0,0,1,.485-1.541,1.075,1.075,0,0,1,1.479.506Z" style="fill:#ffe684"/><path d="M17.534,31.862a1.164,1.164,0,0,1-.486,1.541,1,1,0,0,1-.5.126,1.078,1.078,0,0,1-.982-.632l-2.207-4.6a1.165,1.165,0,0,1,.485-1.541,1.075,1.075,0,0,1,1.479.506Z" style="fill:#ffe684"/><path d="M13.12,31.862a1.164,1.164,0,0,1-.486,1.541,1,1,0,0,1-.5.126,1.079,1.079,0,0,1-.982-.632L8.949,28.3a1.165,1.165,0,0,1,.485-1.541,1.075,1.075,0,0,1,1.479.506Z" style="fill:#ffe684"/><path d="M48.817,37.358a2.135,2.135,0,0,0-.685-1.621c-1.191-1.1-3.509-.793-7.371-.3a71.938,71.938,0,0,1-9.445.77,62.453,62.453,0,0,1-9.192-.793c-3.211-.46-5.153-.747-6.245.241a2.273,2.273,0,0,0-.7,1.7c0,3.3,6.268,11.119,16.133,11.119C40.717,48.477,48.817,41.026,48.817,37.358Z" style="fill:#fffeee"/></g></svg>