<?xml version="1.0" encoding="UTF-8" standalone="no"?> <svg xmlns="http://www.w3.org/2000/svg" width="1537.092" height="1706.674" viewBox="0 0 1537.092 1706.674">
  <g id="Layer_x0020_1" transform="translate(-731.438 -646.67)">
    <path id="Path_36" data-name="Path 36" d="M785.83,2300H2214.16l-48.73-1175.7H834.57L785.84,2300Zm1456.04,53.34H758.11l-1.11-.02a26.675,26.675,0,0,1-25.54-27.75h.09L782.4,1098.65l-.02-1.02a26.669,26.669,0,0,1,26.67-26.67H2190.91a26.683,26.683,0,0,1,26.65,25.56l-.08.06,50.85,1226.81a27.276,27.276,0,0,1,.2,3.28,26.669,26.669,0,0,1-26.67,26.67Z" fill="#022a32"/>
    <path id="Path_37" data-name="Path 37" d="M1932.49,1098.88a26.589,26.589,0,0,0-53.12-2.5l-61.64,1228.96h-.07a26.66,26.66,0,0,0,43.65,21.86l184.56-149.31,179.04,149.2a26.557,26.557,0,0,0,33.96-40.84l-193.96-161.64a26.667,26.667,0,0,0-35.64-1.89h0l-155.43,125.74,58.67-1169.59Z" fill="#022a32"/>
    <path id="Path_38" data-name="Path 38" d="M2074.99,1097.63a26.56,26.56,0,0,0-53.12,0l-2.4,1065.83a26.56,26.56,0,1,0,53.12,0l2.4-1065.83Z" fill="#022a32"/>
    <path id="Path_39" data-name="Path 39" d="M1104.74,1070.96h475.21V885.48a186.078,186.078,0,0,0-185.47-185.47H1290.22a186.078,186.078,0,0,0-185.47,185.47v185.48Zm501.88,53.34H1078.07a26.669,26.669,0,0,1-26.67-26.67V885.48a239.442,239.442,0,0,1,238.81-238.81h104.26a239.442,239.442,0,0,1,238.81,238.81v212.15a26.669,26.669,0,0,1-26.67,26.67Z" fill="#022a32"/>
    <path id="Path_40" data-name="Path 40" d="M1372.2,1070.96h475.21V885.48a186.078,186.078,0,0,0-185.47-185.47H1557.68a186.078,186.078,0,0,0-185.47,185.47v185.48Zm501.88,53.34H1345.53a26.669,26.669,0,0,1-26.67-26.67V885.48a239.442,239.442,0,0,1,238.81-238.81h104.26a239.442,239.442,0,0,1,238.81,238.81v212.15a26.669,26.669,0,0,1-26.67,26.67Z" fill="#022a32"/>
    <path id="Path_41" data-name="Path 41" d="M1104.74,1097.63a26.67,26.67,0,0,0-53.34,0v167.93a26.67,26.67,0,0,0,53.34,0V1097.63Z" fill="#022a32"/>
    <path id="Path_42" data-name="Path 42" d="M1633.29,1097.63a26.67,26.67,0,0,0-53.34,0v164.75a26.67,26.67,0,0,0,53.34,0Z" fill="#022a32"/>
    <path id="Path_43" data-name="Path 43" d="M1078.07,1238.89a103.75,103.75,0,1,1-103.75,103.75A103.826,103.826,0,0,1,1078.07,1238.89Zm0,53.34a50.417,50.417,0,1,0,50.41,50.41A50.3,50.3,0,0,0,1078.07,1292.23Z" fill="#022a32"/>
    <path id="Path_44" data-name="Path 44" d="M1606.62,1235.7a103.747,103.747,0,1,1-103.75,103.75A103.9,103.9,0,0,1,1606.62,1235.7Zm0,53.34a50.41,50.41,0,1,0,50.41,50.41A50.366,50.366,0,0,0,1606.62,1289.04Z" fill="#022a32"/>
    <path id="Path_45" data-name="Path 45" d="M1400.64,1642.98c-14.06,11.24-26,29.2-38.32,53.53a26.663,26.663,0,0,1-48.65,2.12l.1-.05c-23.71-47.43-46.63-71.14-90.83-71.14a87.95,87.95,0,0,0-87.92,87.92c0,50.75,26.48,102.98,66.2,155.94,36.83,49.11,85.89,99.52,136.3,150.09,50.41-50.56,99.48-100.98,136.3-150.09,39.72-52.96,66.2-105.19,66.2-155.94a87.95,87.95,0,0,0-87.92-87.92c-22.29,0-38.52,5.18-51.47,15.54Z" fill="#db5656"/>
    <path id="Path_46" data-name="Path 46" d="M1337.65,1633.98c9.04-12.8,18.79-23.59,29.86-32.45,22.85-18.28,49.59-27.43,84.6-27.43a141.314,141.314,0,0,1,141.26,141.26c0,63.82-30.81,126.19-77.03,187.81-44.52,59.37-102.24,117.08-159.95,174.79h0a26.683,26.683,0,0,1-37.72,0l-.32-.33c-57.6-57.6-115.19-115.21-159.63-174.47-46.22-61.63-77.03-123.99-77.03-187.81a141.314,141.314,0,0,1,141.26-141.26c54.25,0,87.12,19.96,114.71,59.87Z" fill="#db5656"/>
  </g>
</svg>
