<?xml version="1.0" encoding="UTF-8" standalone="no"?> <svg xmlns="http://www.w3.org/2000/svg" width="1706.71" height="1675.665" viewBox="0 0 1706.71 1675.665">
  <g id="Layer_x0020_1" transform="translate(-313.31 -328.825)">
    <path id="Path_190" data-name="Path 190" d="M1042.18,1561.7Zm172-283.84c-91.96,109.44-167.88,199.81-172.07,283.76l.05.06c4.22-84.12,80.09-174.41,172.02-283.81Zm-217.6,234.36a222.093,222.093,0,0,0-5.22,23.59c-.07.45-.15.91-.22,1.36-.09.6-.19,1.2-.28,1.81.04-.01.08-.02.13-.03a234.484,234.484,0,0,1,5.54-26.54C996.55,1512.35,996.56,1512.29,996.58,1512.22Zm177.04-268.6a.179.179,0,0,1-.06.09Zm305.16-499.87Zm-280.29,789.16a305.845,305.845,0,1,1,89.58,216.25A304.9,304.9,0,0,1,1198.49,1532.91Zm-79.36-650.9c-18.8-22.34-38.28-45.54-58.02-69.71.7.85,1.39,1.71,2.09,2.56,18.98,23.18,37.75,45.52,55.92,67.15Zm54.96,361.06,105.83-130.17C1243.6,1160.34,1207.78,1202.97,1174.09,1243.07ZM803.48,347.88ZM989.22,1593.69c5.17,110.96,45.87,220.04,139.57,298.38,81.7,68.3,203.11,112.41,375.54,112.41s293.84-44.11,375.54-112.41c100.65-84.15,140.15-203.76,140.15-323.07,0-105.26-83.33-204.41-184.92-325.3-109.47-130.26-241.25-287.07-304.86-498.67a26.644,26.644,0,0,0-51.42-1.26c-36.85,123.24-96.85,227.93-162.17,319.6-32.74-67.8-90.92-137.04-156.88-215.54C1050.31,717.57,918.54,560.76,854.94,349.16a26.644,26.644,0,0,0-51.42-1.26C740.06,560.13,607.96,717.31,498.28,847.83c-101.6,120.89-184.92,220.04-184.92,325.3,0,119.31,39.5,238.93,140.15,323.07,81.7,68.3,203.11,112.41,375.54,112.41A879.78,879.78,0,0,0,930.27,1603q30.66-3.54,58.97-9.31Zm-160.19-38.42a839.262,839.262,0,0,0,90.86-4.7l-3.12.33A839.561,839.561,0,0,1,829.03,1555.27Z" fill="#adadad" fill-rule="evenodd"/>
    <path id="Path_191" data-name="Path 191" d="M854.91,349.17c63.61,211.6,195.38,368.41,304.83,498.67,81.24,96.68,150.68,179.31,175.31,262.52l.06-.02a26.662,26.662,0,0,1-5.22,24.8c-37.96,50.18-78.08,97.92-115.66,142.64-91.99,109.48-167.94,199.87-172.13,283.84l.07.08a26.659,26.659,0,0,1-22.19,24.96A678.856,678.856,0,0,1,930.22,1603,882.012,882.012,0,0,1,829,1608.61c-172.43,0-293.84-44.11-375.54-112.41-100.65-84.15-140.15-203.76-140.15-323.07,0-105.26,83.32-204.41,184.92-325.3C607.92,717.31,740.01,560.14,803.47,347.9l-.03-.04a26.667,26.667,0,0,1,51.45,1.29Zm264.2,532.84C1019.07,762.95,900.94,622.36,829,437.36c-71.94,185-190.08,325.59-290.13,444.65-94.61,112.58-172.21,204.92-172.21,291.13,0,104.94,34.09,209.61,120.97,282.24,72.61,60.7,182.68,99.9,341.37,99.9a829.384,829.384,0,0,0,95.18-5.19,647.291,647.291,0,0,0,66.79-11.13c13.92-94.54,90.79-186.04,182.63-295.33,33.83-40.26,69.81-83.07,106.3-130.72-24.98-69.27-87.89-144.14-160.79-230.89Z"/>
    <path id="Path_192" data-name="Path 192" d="M1530.22,745.04c63.61,211.59,195.39,368.41,304.86,498.67C1936.67,1364.6,2020,1463.75,2020,1569.01c0,119.31-39.5,238.93-140.15,323.07-81.7,68.3-203.11,112.41-375.54,112.41s-293.84-44.11-375.54-112.41c-100.65-84.15-140.15-203.76-140.15-323.07,0-105.26,83.33-204.41,184.92-325.3,109.69-130.52,241.78-287.69,305.24-499.92l-.03-.04a26.667,26.667,0,0,1,51.45,1.29Zm264.23,532.83c-100.05-119.06-218.19-259.65-290.13-444.65-71.94,185-190.08,325.59-290.13,444.65-94.61,112.58-172.21,204.92-172.21,291.13,0,104.94,34.09,209.61,120.97,282.24,72.61,60.7,182.68,99.9,341.37,99.9s268.76-39.2,341.37-99.9c86.88-72.63,120.97-177.3,120.97-282.24C1966.66,1482.79,1889.06,1390.45,1794.45,1277.87Z"/>
    <path id="Path_193" data-name="Path 193" d="M1586.91,1402.78a26.581,26.581,0,0,0-49.17-20.21l-116.13,280.24a26.581,26.581,0,1,0,49.17,20.21Z"/>
    <path id="Path_194" data-name="Path 194" d="M1406.87,1357.49c21.59,0,40.83,10.2,54.46,26.7,12.48,15.09,20.21,35.64,20.21,58.04s-7.73,42.94-20.21,58.04c-13.63,16.49-32.87,26.7-54.46,26.7s-40.83-10.2-54.46-26.7c-12.48-15.1-20.21-35.65-20.21-58.04s7.73-42.93,20.21-58.04C1366.04,1367.7,1385.28,1357.49,1406.87,1357.49Zm13.42,60.66c-3.74-4.52-8.51-7.32-13.42-7.32s-9.69,2.8-13.42,7.32c-4.88,5.91-7.91,14.41-7.91,24.07s3.02,18.17,7.91,24.07c3.73,4.52,8.51,7.32,13.42,7.32s9.68-2.8,13.42-7.32c4.88-5.91,7.91-14.41,7.91-24.07S1425.17,1424.05,1420.29,1418.15Z"/>
    <path id="Path_195" data-name="Path 195" d="M1599.58,1541.74c21.59,0,40.83,10.2,54.46,26.7,12.48,15.1,20.21,35.65,20.21,58.04s-7.73,42.93-20.21,58.04c-13.63,16.49-32.87,26.7-54.46,26.7s-40.83-10.2-54.46-26.7c-12.48-15.09-20.21-35.64-20.21-58.04s7.73-42.94,20.21-58.04C1558.75,1551.95,1577.99,1541.74,1599.58,1541.74ZM1613,1602.4c-3.74-4.52-8.51-7.32-13.42-7.32s-9.69,2.8-13.42,7.32c-4.88,5.91-7.91,14.4-7.91,24.07s3.03,18.17,7.91,24.07c3.73,4.52,8.51,7.32,13.42,7.32s9.69-2.8,13.42-7.32c4.89-5.91,7.91-14.41,7.91-24.07S1617.88,1608.3,1613,1602.4Z"/>
    <path id="Path_196" data-name="Path 196" d="M1504.31,1227.07a305.845,305.845,0,1,1-216.25,89.58A304.881,304.881,0,0,1,1504.31,1227.07Zm178.54,127.29a252.5,252.5,0,1,0,73.95,178.54A251.7,251.7,0,0,0,1682.85,1354.36Z"/>
    <path id="Path_197" data-name="Path 197" d="M1279.91,1112.89c-24.98-69.27-87.89-144.14-160.79-230.89C1019.08,762.94,900.95,622.35,829.01,437.35,757.07,622.35,638.93,762.94,538.88,882c-94.61,112.58-172.21,204.92-172.21,291.13,0,104.94,34.09,209.61,120.97,282.24,72.61,60.7,182.68,99.9,341.37,99.9a829.384,829.384,0,0,0,95.18-5.19,648.129,648.129,0,0,0,66.67-11.11c10.51-71.52,57.25-141.43,119.26-218.69,19.81-24.69,41.18-50.12,63.43-76.59a.709.709,0,0,0,.06-.09c33.83-40.26,69.81-83.07,106.3-130.72Z" fill="#f0f0f0" fill-rule="evenodd"/>
    <path id="Path_198" data-name="Path 198" d="M1682.86,1354.36a252.5,252.5,0,1,0,73.95,178.54A251.7,251.7,0,0,0,1682.86,1354.36Zm-110.43,13.73a26.587,26.587,0,0,1,14.48,34.69l-116.13,280.24a26.581,26.581,0,1,1-49.17-20.21l116.13-280.24A26.587,26.587,0,0,1,1572.43,1368.09Zm-90.89,74.13c0,22.4-7.73,42.94-20.21,58.04-13.63,16.49-32.87,26.7-54.46,26.7s-40.83-10.2-54.46-26.7c-12.48-15.1-20.21-35.65-20.21-58.04s7.73-42.93,20.21-58.04c13.63-16.49,32.87-26.7,54.46-26.7s40.83,10.2,54.46,26.7C1473.81,1399.27,1481.54,1419.82,1481.54,1442.22Zm118.04,99.52c21.59,0,40.83,10.2,54.46,26.7,12.48,15.1,20.21,35.65,20.21,58.04s-7.73,42.93-20.21,58.04c-13.63,16.49-32.87,26.7-54.46,26.7s-40.83-10.2-54.46-26.7c-12.48-15.09-20.21-35.64-20.21-58.04s7.73-42.94,20.21-58.04C1558.75,1551.95,1577.99,1541.74,1599.58,1541.74Z" fill="#f0f0f0" fill-rule="evenodd"/>
    <path id="Path_199" data-name="Path 199" d="M1613,1602.4c-3.74-4.52-8.51-7.32-13.42-7.32s-9.69,2.8-13.42,7.32c-4.88,5.91-7.91,14.4-7.91,24.07s3.03,18.17,7.91,24.07c3.73,4.52,8.51,7.32,13.42,7.32s9.69-2.8,13.42-7.32c4.89-5.91,7.91-14.41,7.91-24.07S1617.88,1608.3,1613,1602.4Z" fill="#adadad" fill-rule="evenodd"/>
    <path id="Path_200" data-name="Path 200" d="M1420.29,1466.3c4.88-5.91,7.91-14.41,7.91-24.07s-3.03-18.17-7.91-24.07c-3.74-4.52-8.51-7.32-13.42-7.32s-9.69,2.8-13.42,7.32c-4.88,5.91-7.91,14.41-7.91,24.07s3.02,18.17,7.91,24.07c3.73,4.52,8.51,7.32,13.42,7.32S1416.55,1470.82,1420.29,1466.3Z" fill="#adadad" fill-rule="evenodd"/>
  </g>
</svg>
