<svg xmlns="http://www.w3.org/2000/svg" xmlns:xlink="http://www.w3.org/1999/xlink" width="80" zoomAndPan="magnify" viewBox="0 0 60 37.5" height="50" preserveAspectRatio="xMidYMid meet" version="1.0"><defs><g/><clipPath id="c262cdcf5b"><path d="M 19 24 L 35 24 L 35 30.953125 L 19 30.953125 Z M 19 24 " clip-rule="nonzero"/></clipPath><clipPath id="71fffeac76"><path d="M 31 25 L 40 25 L 40 30.953125 L 31 30.953125 Z M 31 25 " clip-rule="nonzero"/></clipPath><clipPath id="12676720ab"><path d="M 20 26 L 30 26 L 30 30.953125 L 20 30.953125 Z M 20 26 " clip-rule="nonzero"/></clipPath><clipPath id="84c8f46be8"><path d="M 22 25 L 34 25 L 34 30.953125 L 22 30.953125 Z M 22 25 " clip-rule="nonzero"/></clipPath><clipPath id="d1779654c6"><path d="M 18.890625 5.789062 L 40.355469 5.789062 L 40.355469 13 L 18.890625 13 Z M 18.890625 5.789062 " clip-rule="nonzero"/></clipPath><clipPath id="17dd9512f9"><path d="M 53 15 L 59.605469 15 L 59.605469 22 L 53 22 Z M 53 15 " clip-rule="nonzero"/></clipPath></defs><g fill="#333333" fill-opacity="1"><g transform="translate(15.670645, 26.908685)"><g><path d="M 2.671875 0.5 L 1.140625 1.59375 L 0.875 1.234375 L 1.5 0.796875 L 1 0.09375 L 0.375 0.53125 L 0.125 0.171875 L 1.65625 -0.921875 L 1.90625 -0.5625 L 1.296875 -0.125 L 1.796875 0.578125 L 2.40625 0.140625 Z M 2.671875 0.5 "/></g></g></g><g fill="#333333" fill-opacity="1"><g transform="translate(17.635587, 29.466027)"><g><path d="M 1.4375 0.90625 L 1.203125 1.15625 L 0.15625 0.15625 L 1.453125 -1.1875 L 2.46875 -0.203125 L 2.234375 0.046875 L 1.53125 -0.640625 L 1.25 -0.359375 L 1.875 0.25 L 1.640625 0.5 L 1.015625 -0.109375 L 0.703125 0.203125 Z M 1.4375 0.90625 "/></g></g></g><g fill="#333333" fill-opacity="1"><g transform="translate(19.744008, 31.392124)"><g><path d="M 1.4375 0.46875 L 0.71875 -0.015625 L 0.34375 0.234375 L -0.03125 -0.015625 L 1.71875 -1.109375 L 2.078125 -0.859375 L 1.71875 1.15625 L 1.34375 0.90625 Z M 1.515625 0.125 L 1.671875 -0.625 L 1.015625 -0.203125 Z M 1.515625 0.125 "/></g></g></g><g fill="#333333" fill-opacity="1"><g transform="translate(22.379978, 33.030757)"><g><path d="M 0.96875 -1.625 L 1.359375 -1.453125 L 0.734375 -0.0625 L 1.609375 0.328125 L 1.46875 0.65625 L 0.203125 0.09375 Z M 0.96875 -1.625 "/></g></g></g><g fill="#333333" fill-opacity="1"><g transform="translate(24.840658, 34.038681)"><g><path d="M 0.984375 -1.328125 L 0.40625 -1.484375 L 0.5 -1.8125 L 2.078125 -1.390625 L 1.984375 -1.0625 L 1.40625 -1.21875 L 1.015625 0.265625 L 0.59375 0.15625 Z M 0.984375 -1.328125 "/></g></g></g><g fill="#333333" fill-opacity="1"><g transform="translate(27.480434, 34.666467)"><g><path d="M 2.109375 -1.71875 L 1.953125 0.15625 L 1.515625 0.125 L 1.578125 -0.640625 L 0.71875 -0.71875 L 0.65625 0.046875 L 0.21875 0.015625 L 0.375 -1.859375 L 0.8125 -1.828125 L 0.75 -1.09375 L 1.609375 -1.015625 L 1.671875 -1.75 Z M 2.109375 -1.71875 "/></g></g></g><g fill="#333333" fill-opacity="1"><g transform="translate(30.702119, 34.821066)"><g><path d="M 1.0625 -0.78125 L 1.125 -0.109375 L 0.6875 -0.0625 L 0.625 -0.734375 L -0.21875 -1.859375 L 0.234375 -1.90625 L 0.8125 -1.140625 L 1.25 -2 L 1.65625 -2.046875 Z M 1.0625 -0.78125 "/></g></g></g><g fill="#333333" fill-opacity="1"><g transform="translate(33.506843, 34.435567)"><g/></g></g><g fill="#333333" fill-opacity="1"><g transform="translate(35.225015, 33.984288)"><g><path d="M 0.046875 -1.65625 L 0.234375 -1.203125 L 1.046875 -1.53125 L 1.171875 -1.203125 L 0.359375 -0.875 L 0.609375 -0.234375 L 0.203125 -0.078125 L -0.46875 -1.828125 L 0.859375 -2.34375 L 0.96875 -2.015625 Z M 0.046875 -1.65625 "/></g></g></g><g fill="#333333" fill-opacity="1"><g transform="translate(37.784001, 32.912503)"><g><path d="M 0.984375 -0.5625 C 0.816406 -0.457031 0.644531 -0.398438 0.46875 -0.390625 C 0.289062 -0.390625 0.128906 -0.425781 -0.015625 -0.5 C -0.171875 -0.582031 -0.296875 -0.703125 -0.390625 -0.859375 C -0.492188 -1.015625 -0.546875 -1.175781 -0.546875 -1.34375 C -0.554688 -1.519531 -0.515625 -1.679688 -0.421875 -1.828125 C -0.328125 -1.984375 -0.195312 -2.113281 -0.03125 -2.21875 C 0.125 -2.320312 0.289062 -2.378906 0.46875 -2.390625 C 0.644531 -2.398438 0.804688 -2.363281 0.953125 -2.28125 C 1.109375 -2.195312 1.238281 -2.078125 1.34375 -1.921875 C 1.4375 -1.765625 1.484375 -1.601562 1.484375 -1.4375 C 1.492188 -1.269531 1.453125 -1.109375 1.359375 -0.953125 C 1.265625 -0.796875 1.140625 -0.664062 0.984375 -0.5625 Z M 0.78125 -0.890625 C 0.875 -0.953125 0.945312 -1.019531 1 -1.09375 C 1.050781 -1.175781 1.070312 -1.273438 1.0625 -1.390625 C 1.0625 -1.503906 1.035156 -1.609375 0.984375 -1.703125 C 0.921875 -1.796875 0.835938 -1.867188 0.734375 -1.921875 C 0.640625 -1.972656 0.539062 -2 0.4375 -2 C 0.34375 -2 0.25 -1.96875 0.15625 -1.90625 C 0.0625 -1.851562 -0.0078125 -1.78125 -0.0625 -1.6875 C -0.113281 -1.601562 -0.132812 -1.503906 -0.125 -1.390625 C -0.113281 -1.273438 -0.078125 -1.171875 -0.015625 -1.078125 C 0.0351562 -0.984375 0.109375 -0.910156 0.203125 -0.859375 C 0.296875 -0.804688 0.390625 -0.785156 0.484375 -0.796875 C 0.585938 -0.804688 0.6875 -0.835938 0.78125 -0.890625 Z M 0.78125 -0.890625 "/></g></g></g><g fill="#333333" fill-opacity="1"><g transform="translate(40.568373, 31.070024)"><g><path d="M 0.84375 -0.765625 C 0.695312 -0.628906 0.539062 -0.535156 0.375 -0.484375 C 0.207031 -0.429688 0.0390625 -0.429688 -0.125 -0.484375 C -0.289062 -0.535156 -0.4375 -0.628906 -0.5625 -0.765625 C -0.6875 -0.898438 -0.765625 -1.046875 -0.796875 -1.203125 C -0.828125 -1.367188 -0.816406 -1.535156 -0.765625 -1.703125 C -0.710938 -1.878906 -0.613281 -2.035156 -0.46875 -2.171875 C -0.332031 -2.296875 -0.175781 -2.378906 0 -2.421875 C 0.164062 -2.472656 0.332031 -2.472656 0.5 -2.421875 C 0.664062 -2.378906 0.8125 -2.289062 0.9375 -2.15625 C 1.0625 -2.019531 1.140625 -1.867188 1.171875 -1.703125 C 1.203125 -1.535156 1.1875 -1.367188 1.125 -1.203125 C 1.070312 -1.035156 0.976562 -0.890625 0.84375 -0.765625 Z M 0.59375 -1.03125 C 0.675781 -1.101562 0.734375 -1.1875 0.765625 -1.28125 C 0.796875 -1.375 0.796875 -1.472656 0.765625 -1.578125 C 0.742188 -1.679688 0.691406 -1.773438 0.609375 -1.859375 C 0.535156 -1.941406 0.445312 -2 0.34375 -2.03125 C 0.238281 -2.0625 0.132812 -2.066406 0.03125 -2.046875 C -0.0625 -2.023438 -0.148438 -1.976562 -0.234375 -1.90625 C -0.316406 -1.820312 -0.367188 -1.734375 -0.390625 -1.640625 C -0.421875 -1.546875 -0.421875 -1.445312 -0.390625 -1.34375 C -0.359375 -1.238281 -0.304688 -1.144531 -0.234375 -1.0625 C -0.148438 -0.976562 -0.0625 -0.921875 0.03125 -0.890625 C 0.132812 -0.859375 0.234375 -0.851562 0.328125 -0.875 C 0.421875 -0.894531 0.507812 -0.945312 0.59375 -1.03125 Z M 0.59375 -1.03125 "/></g></g></g><g fill="#333333" fill-opacity="1"><g transform="translate(42.93166, 28.713949)"><g><path d="M -1.40625 -1.265625 L -0.90625 -1.96875 C -0.78125 -2.132812 -0.640625 -2.257812 -0.484375 -2.34375 C -0.328125 -2.425781 -0.164062 -2.457031 0 -2.4375 C 0.164062 -2.425781 0.320312 -2.367188 0.46875 -2.265625 C 0.625 -2.148438 0.734375 -2.019531 0.796875 -1.875 C 0.859375 -1.726562 0.875 -1.566406 0.84375 -1.390625 C 0.820312 -1.210938 0.75 -1.039062 0.625 -0.875 L 0.125 -0.171875 Z M 0.328125 -1.0625 C 0.429688 -1.21875 0.472656 -1.367188 0.453125 -1.515625 C 0.429688 -1.671875 0.347656 -1.800781 0.203125 -1.90625 C 0.0546875 -2.007812 -0.0859375 -2.046875 -0.234375 -2.015625 C -0.390625 -1.992188 -0.519531 -1.90625 -0.625 -1.75 L -0.875 -1.421875 L 0.078125 -0.734375 Z M 0.328125 -1.0625 "/></g></g></g><g fill="#333333" fill-opacity="1"><g transform="translate(16.187137, 11.502302)"><g><path d="M -0.375 -2.671875 L 1.140625 -1.578125 L 0.9375 -1.296875 L -0.53125 -1.203125 L 0.390625 -0.53125 L 0.125 -0.171875 L -1.390625 -1.265625 L -1.171875 -1.5625 L 0.296875 -1.671875 L -0.625 -2.328125 Z M -0.375 -2.671875 "/></g></g></g><g fill="#333333" fill-opacity="1"><g transform="translate(18.070006, 9.05765)"><g><path d="M 0.78125 -1.3125 L 0.15625 -0.703125 L 0.3125 -0.296875 L -0.015625 0.015625 L -0.703125 -1.921875 L -0.390625 -2.21875 L 1.515625 -1.4375 L 1.171875 -1.125 Z M 0.46875 -1.4375 L -0.25 -1.75 L 0.03125 -1.03125 Z M 0.46875 -1.4375 "/></g></g></g><g fill="#333333" fill-opacity="1"><g transform="translate(20.300441, 7.075024)"><g><path d="M -0.34375 -1.625 L -0.828125 -1.296875 L -1.03125 -1.578125 L 0.328125 -2.484375 L 0.53125 -2.203125 L 0.03125 -1.859375 L 0.875 -0.578125 L 0.5 -0.34375 Z M -0.34375 -1.625 "/></g></g></g><g fill="#333333" fill-opacity="1"><g transform="translate(22.485664, 5.689055)"><g><path d="M 0.984375 -0.40625 C 0.734375 -0.289062 0.507812 -0.269531 0.3125 -0.34375 C 0.113281 -0.414062 -0.0351562 -0.578125 -0.140625 -0.828125 L -0.578125 -1.796875 L -0.1875 -1.984375 L 0.234375 -1.03125 C 0.367188 -0.726562 0.566406 -0.632812 0.828125 -0.75 C 0.953125 -0.800781 1.03125 -0.875 1.0625 -0.96875 C 1.101562 -1.070312 1.085938 -1.203125 1.015625 -1.359375 L 0.59375 -2.3125 L 0.984375 -2.484375 L 1.421875 -1.515625 C 1.523438 -1.265625 1.539062 -1.039062 1.46875 -0.84375 C 1.394531 -0.65625 1.234375 -0.507812 0.984375 -0.40625 Z M 0.984375 -0.40625 "/></g></g></g><g fill="#333333" fill-opacity="1"><g transform="translate(25.296089, 4.543053)"><g><path d="M 1.375 -0.328125 L 0.90625 -0.765625 L 0.875 -0.75 L 0.515625 -0.671875 L 0.640625 -0.15625 L 0.21875 -0.046875 L -0.21875 -1.875 L 0.5625 -2.0625 C 0.726562 -2.101562 0.875 -2.113281 1 -2.09375 C 1.132812 -2.070312 1.25 -2.019531 1.34375 -1.9375 C 1.4375 -1.851562 1.5 -1.742188 1.53125 -1.609375 C 1.5625 -1.460938 1.554688 -1.332031 1.515625 -1.21875 C 1.472656 -1.113281 1.394531 -1.019531 1.28125 -0.9375 L 1.84375 -0.4375 Z M 1.09375 -1.5 C 1.070312 -1.601562 1.019531 -1.671875 0.9375 -1.703125 C 0.851562 -1.742188 0.75 -1.75 0.625 -1.71875 L 0.28125 -1.640625 L 0.4375 -1 L 0.78125 -1.078125 C 0.90625 -1.109375 0.992188 -1.160156 1.046875 -1.234375 C 1.097656 -1.304688 1.113281 -1.394531 1.09375 -1.5 Z M 1.09375 -1.5 "/></g></g></g><g fill="#333333" fill-opacity="1"><g transform="translate(28.128257, 3.943853)"><g><path d="M 1.453125 -0.484375 L 0.578125 -0.4375 L 0.421875 -0.03125 L -0.03125 0 L 0.703125 -1.921875 L 1.140625 -1.953125 L 2.078125 -0.125 L 1.625 -0.09375 Z M 1.28125 -0.8125 L 0.953125 -1.515625 L 0.6875 -0.78125 Z M 1.28125 -0.8125 "/></g></g></g><g fill="#333333" fill-opacity="1"><g transform="translate(31.112363, 3.872041)"><g><path d="M 0.421875 -1.828125 L 0.859375 -1.78125 L 0.703125 -0.28125 L 1.640625 -0.171875 L 1.59375 0.1875 L 0.21875 0.03125 Z M 0.421875 -1.828125 "/></g></g></g><g fill="#333333" fill-opacity="1"><g transform="translate(33.665379, 4.252744)"><g/></g></g><g fill="#333333" fill-opacity="1"><g transform="translate(35.326271, 4.699479)"><g><path d="M 1.171875 -1.171875 L 0.984375 -0.703125 L 1.796875 -0.390625 L 1.671875 -0.078125 L 0.859375 -0.390625 L 0.609375 0.25 L 0.203125 0.078125 L 0.890625 -1.671875 L 2.21875 -1.140625 L 2.09375 -0.8125 Z M 1.171875 -1.171875 "/></g></g></g><g fill="#333333" fill-opacity="1"><g transform="translate(37.757478, 5.727742)"><g><path d="M 0.953125 0.640625 C 0.785156 0.535156 0.65625 0.40625 0.5625 0.25 C 0.46875 0.09375 0.421875 -0.0664062 0.421875 -0.234375 C 0.429688 -0.410156 0.488281 -0.578125 0.59375 -0.734375 C 0.6875 -0.890625 0.804688 -1.003906 0.953125 -1.078125 C 1.109375 -1.160156 1.273438 -1.195312 1.453125 -1.1875 C 1.628906 -1.175781 1.800781 -1.117188 1.96875 -1.015625 C 2.125 -0.921875 2.25 -0.796875 2.34375 -0.640625 C 2.4375 -0.484375 2.476562 -0.316406 2.46875 -0.140625 C 2.46875 0.0234375 2.421875 0.1875 2.328125 0.34375 C 2.222656 0.5 2.09375 0.613281 1.9375 0.6875 C 1.789062 0.769531 1.628906 0.804688 1.453125 0.796875 C 1.273438 0.785156 1.109375 0.734375 0.953125 0.640625 Z M 1.15625 0.3125 C 1.238281 0.363281 1.328125 0.394531 1.421875 0.40625 C 1.523438 0.414062 1.625 0.390625 1.71875 0.328125 C 1.8125 0.273438 1.890625 0.203125 1.953125 0.109375 C 2.003906 0.015625 2.035156 -0.0820312 2.046875 -0.1875 C 2.054688 -0.300781 2.035156 -0.398438 1.984375 -0.484375 C 1.929688 -0.578125 1.863281 -0.648438 1.78125 -0.703125 C 1.6875 -0.765625 1.585938 -0.796875 1.484375 -0.796875 C 1.378906 -0.804688 1.28125 -0.785156 1.1875 -0.734375 C 1.09375 -0.679688 1.019531 -0.609375 0.96875 -0.515625 C 0.90625 -0.421875 0.867188 -0.316406 0.859375 -0.203125 C 0.847656 -0.0859375 0.867188 0.0078125 0.921875 0.09375 C 0.984375 0.175781 1.0625 0.25 1.15625 0.3125 Z M 1.15625 0.3125 "/></g></g></g><g fill="#333333" fill-opacity="1"><g transform="translate(40.407107, 7.478232)"><g><path d="M 0.8125 0.796875 C 0.675781 0.660156 0.578125 0.507812 0.515625 0.34375 C 0.460938 0.175781 0.453125 0.0078125 0.484375 -0.15625 C 0.515625 -0.320312 0.59375 -0.472656 0.71875 -0.609375 C 0.84375 -0.742188 0.988281 -0.835938 1.15625 -0.890625 C 1.320312 -0.941406 1.488281 -0.941406 1.65625 -0.890625 C 1.832031 -0.835938 1.988281 -0.742188 2.125 -0.609375 C 2.269531 -0.484375 2.367188 -0.335938 2.421875 -0.171875 C 2.484375 -0.015625 2.492188 0.144531 2.453125 0.3125 C 2.421875 0.488281 2.34375 0.644531 2.21875 0.78125 C 2.09375 0.914062 1.945312 1.003906 1.78125 1.046875 C 1.625 1.097656 1.457031 1.097656 1.28125 1.046875 C 1.113281 1.003906 0.957031 0.921875 0.8125 0.796875 Z M 1.0625 0.53125 C 1.144531 0.601562 1.234375 0.648438 1.328125 0.671875 C 1.421875 0.691406 1.515625 0.6875 1.609375 0.65625 C 1.710938 0.625 1.804688 0.566406 1.890625 0.484375 C 1.960938 0.398438 2.015625 0.304688 2.046875 0.203125 C 2.078125 0.0976562 2.078125 0 2.046875 -0.09375 C 2.015625 -0.1875 1.957031 -0.269531 1.875 -0.34375 C 1.789062 -0.425781 1.703125 -0.476562 1.609375 -0.5 C 1.515625 -0.519531 1.414062 -0.515625 1.3125 -0.484375 C 1.207031 -0.453125 1.117188 -0.394531 1.046875 -0.3125 C 0.960938 -0.226562 0.90625 -0.132812 0.875 -0.03125 C 0.851562 0.0703125 0.859375 0.171875 0.890625 0.265625 C 0.921875 0.359375 0.976562 0.445312 1.0625 0.53125 Z M 1.0625 0.53125 "/></g></g></g><g fill="#333333" fill-opacity="1"><g transform="translate(42.669573, 9.707856)"><g><path d="M 1.640625 -0.9375 L 2.15625 -0.234375 C 2.269531 -0.0664062 2.34375 0.0976562 2.375 0.265625 C 2.40625 0.441406 2.382812 0.601562 2.3125 0.75 C 2.25 0.90625 2.144531 1.039062 2 1.15625 C 1.84375 1.257812 1.679688 1.316406 1.515625 1.328125 C 1.359375 1.347656 1.203125 1.316406 1.046875 1.234375 C 0.890625 1.160156 0.753906 1.039062 0.640625 0.875 L 0.125 0.171875 Z M 0.921875 0.640625 C 1.035156 0.796875 1.164062 0.890625 1.3125 0.921875 C 1.457031 0.953125 1.601562 0.914062 1.75 0.8125 C 1.882812 0.707031 1.960938 0.578125 1.984375 0.421875 C 2.015625 0.265625 1.972656 0.109375 1.859375 -0.046875 L 1.625 -0.375 L 0.6875 0.3125 Z M 0.921875 0.640625 "/></g></g></g><g clip-path="url(#c262cdcf5b)"><path fill="#3bab5a" d="M 34.585938 30.117188 C 33.441406 28.558594 32.019531 27.328125 30.3125 26.425781 C 28.710938 25.578125 27.007812 25.101562 25.199219 24.996094 C 23.390625 24.890625 21.644531 25.160156 19.953125 25.808594 C 20.359375 26.363281 20.804688 26.878906 21.292969 27.359375 C 21.78125 27.835938 22.308594 28.273438 22.867188 28.667969 C 23.425781 29.0625 24.015625 29.40625 24.632812 29.707031 C 25.25 30.003906 25.886719 30.25 26.542969 30.441406 C 27.199219 30.636719 27.867188 30.773438 28.542969 30.859375 C 29.222656 30.941406 29.90625 30.96875 30.589844 30.941406 C 31.273438 30.914062 31.949219 30.832031 32.617188 30.695312 C 33.289062 30.554688 33.945312 30.363281 34.582031 30.117188 Z M 34.585938 30.117188 " fill-opacity="1" fill-rule="evenodd"/></g><g clip-path="url(#71fffeac76)"><path fill="#3bab5a" d="M 34.578125 30.109375 L 34.578125 30.117188 C 36.640625 29.320312 38.371094 28.0625 39.773438 26.351562 C 38.386719 25.796875 36.945312 25.503906 35.449219 25.464844 C 33.957031 25.425781 32.503906 25.648438 31.085938 26.128906 C 32.535156 27.207031 33.699219 28.53125 34.578125 30.109375 Z M 34.578125 30.109375 " fill-opacity="1" fill-rule="evenodd"/></g><g clip-path="url(#12676720ab)"><path fill="#ffa500" d="M 30 30.949219 C 28.816406 29.546875 27.394531 28.453125 25.734375 27.671875 C 24.074219 26.894531 22.324219 26.5 20.488281 26.492188 L 20.570312 26.585938 C 22.125 26.773438 23.589844 27.234375 24.972656 27.972656 C 26.355469 28.710938 27.554688 29.671875 28.574219 30.863281 C 28.628906 30.863281 28.679688 30.875 28.734375 30.878906 C 28.785156 30.882812 28.863281 30.894531 28.929688 30.898438 C 29.210938 30.925781 29.5 30.941406 29.789062 30.945312 C 29.859375 30.945312 29.929688 30.945312 30 30.945312 Z M 30 30.949219 " fill-opacity="1" fill-rule="evenodd"/></g><g clip-path="url(#84c8f46be8)"><path fill="#ffa500" d="M 22.691406 25.851562 C 23.605469 25.894531 24.5 26.039062 25.382812 26.28125 C 26.265625 26.523438 27.113281 26.855469 27.921875 27.285156 C 28.730469 27.710938 29.484375 28.21875 30.179688 28.8125 C 30.878906 29.40625 31.503906 30.066406 32.058594 30.796875 C 32.449219 30.734375 32.84375 30.652344 33.21875 30.554688 C 32.628906 29.816406 31.96875 29.15625 31.230469 28.566406 C 30.496094 27.980469 29.703125 27.480469 28.851562 27.070312 C 28.003906 26.664062 27.121094 26.355469 26.203125 26.144531 C 25.285156 25.933594 24.355469 25.832031 23.414062 25.832031 C 23.171875 25.832031 22.929688 25.832031 22.691406 25.851562 Z M 22.691406 25.851562 " fill-opacity="1" fill-rule="evenodd"/></g><path fill="#ffa500" d="M 32.824219 27.683594 C 34.082031 26.972656 35.425781 26.496094 36.847656 26.253906 C 35.296875 26.296875 33.800781 26.617188 32.367188 27.214844 C 32.523438 27.367188 32.675781 27.523438 32.824219 27.683594 Z M 32.824219 27.683594 " fill-opacity="1" fill-rule="evenodd"/><path fill="#ffa500" d="M 38.65625 27.203125 C 36.84375 27.25 35.125 27.675781 33.496094 28.476562 C 33.652344 28.664062 33.789062 28.863281 33.925781 29.0625 C 35.375 28.113281 36.953125 27.496094 38.65625 27.203125 Z M 38.65625 27.203125 " fill-opacity="1" fill-rule="evenodd"/><g clip-path="url(#d1779654c6)"><path fill="#3bab5a" d="M 30.207031 12.027344 C 33.765625 11.203125 36.695312 9.425781 40.3125 11.082031 C 39.738281 10.273438 39.078125 9.539062 38.332031 8.886719 C 37.585938 8.234375 36.773438 7.675781 35.894531 7.214844 C 35.015625 6.757812 34.097656 6.40625 33.136719 6.164062 C 32.175781 5.921875 31.199219 5.796875 30.207031 5.789062 L 30.078125 5.789062 C 28.929688 5.789062 27.800781 5.941406 26.691406 6.253906 C 25.585938 6.5625 24.539062 7.019531 23.558594 7.617188 C 22.574219 8.214844 21.691406 8.933594 20.90625 9.777344 C 20.121094 10.617188 19.460938 11.550781 18.933594 12.574219 C 18.933594 12.574219 20.035156 11.019531 22.011719 11.320312 C 23.171875 10.246094 25.652344 8.5 29.867188 8.039062 C 29.867188 8.039062 25.539062 9.421875 23.429688 11.761719 C 26.039062 12.660156 28.222656 12.492188 30.207031 12.027344 Z M 30.207031 12.027344 " fill-opacity="1" fill-rule="evenodd"/></g><path fill="#ffa500" d="M 22.394531 9.417969 C 23.464844 8.484375 24.664062 7.765625 25.992188 7.269531 C 27.320312 6.773438 28.691406 6.527344 30.109375 6.535156 C 32.421875 6.523438 34.554688 7.144531 36.5 8.398438 C 35.59375 7.667969 34.589844 7.109375 33.496094 6.71875 C 32.402344 6.328125 31.273438 6.128906 30.109375 6.117188 L 29.996094 6.117188 C 28.558594 6.117188 27.175781 6.402344 25.855469 6.976562 C 24.535156 7.550781 23.382812 8.363281 22.394531 9.417969 Z M 22.394531 9.417969 " fill-opacity="1" fill-rule="evenodd"/><path fill="#ffa500" d="M 24.519531 11.5625 C 25.746094 10.601562 27.101562 9.882812 28.585938 9.398438 C 29.117188 9.222656 29.65625 9.074219 30.203125 8.957031 C 29.121094 9.023438 28.082031 9.28125 27.09375 9.726562 C 26.101562 10.171875 25.222656 10.777344 24.453125 11.546875 Z M 24.519531 11.5625 " fill-opacity="1" fill-rule="evenodd"/><g fill="#333333" fill-opacity="1"><g transform="translate(1.483156, 21.594611)"><g><path d="M 0.957031 0.0898438 C 1 0.0976562 1.042969 0.0898438 1.078125 0.0664062 C 2.902344 0.441406 4.375 -0.429688 4.746094 -1.527344 C 5.089844 -2.515625 4.921875 -3.199219 4.21875 -3.527344 C 4.792969 -3.859375 5.15625 -4.429688 5.472656 -5.40625 C 5.859375 -6.628906 5.242188 -7.859375 3.527344 -7.859375 C 2.738281 -7.859375 2 -7.605469 1.242188 -7.515625 C 1.132812 -7.507812 1.054688 -7.429688 1.089844 -7.332031 C 1.164062 -7.066406 1.394531 -6.824219 1.714844 -6.714844 L 0.199219 -1.066406 C 0.0546875 -0.527344 0.351562 -0.0117188 0.957031 0.0898438 Z M 2.890625 -6.515625 C 2.914062 -6.617188 2.921875 -6.714844 2.902344 -6.824219 C 3.109375 -6.867188 3.320312 -6.914062 3.527344 -6.914062 C 4.210938 -6.914062 4.605469 -6.164062 4.328125 -5.496094 C 4 -4.660156 3.472656 -3.976562 2.386719 -3.703125 L 2.132812 -3.683594 Z M 1.945312 -3.011719 C 2.386719 -3.011719 2.847656 -3 3.144531 -2.945312 C 3.503906 -2.878906 3.878906 -2.59375 3.605469 -1.78125 C 3.351562 -1.042969 2.496094 -0.648438 1.351562 -0.800781 Z M 1.945312 -3.011719 "/></g></g></g><g fill="#333333" fill-opacity="1"><g transform="translate(6.571379, 21.594611)"><g><path d="M 2.1875 0.152344 C 3.484375 0.144531 4.144531 -0.800781 4.660156 -2.5625 C 5.242188 -4.539062 4.496094 -6.089844 3.097656 -5.59375 C 1.835938 -5.691406 1 -4.617188 0.503906 -2.96875 C -0.144531 -0.8125 0.527344 0.429688 2.1875 0.152344 Z M 1.878906 -0.417969 C 1.273438 -0.703125 1.363281 -1.769531 1.679688 -2.835938 C 2.097656 -4.21875 2.386719 -4.921875 2.902344 -5 C 3.867188 -4.988281 3.8125 -3.746094 3.484375 -2.691406 C 2.921875 -0.890625 2.59375 -0.242188 1.878906 -0.417969 Z M 1.878906 -0.417969 "/></g></g></g><g fill="#333333" fill-opacity="1"><g transform="translate(11.395852, 21.594611)"><g><path d="M 5.792969 -2.449219 C 5.757812 -2.472656 5.714844 -2.460938 5.703125 -2.417969 C 5.230469 -0.867188 4.726562 -0.738281 4.375 -0.738281 C 3.933594 -0.738281 3.878906 -1.054688 4.132812 -1.890625 L 4.78125 -4.066406 C 5.132812 -5.265625 4.859375 -5.648438 4.199219 -5.648438 C 4.132812 -5.648438 4.078125 -5.605469 4.054688 -5.539062 L 3.066406 -2.472656 C 2.976562 -2.210938 2.914062 -1.976562 2.855469 -1.757812 C 2.625 -1.054688 2.199219 -0.472656 1.855469 -0.558594 C 1.285156 -0.835938 1.429688 -1.671875 1.714844 -2.660156 L 2.144531 -4.066406 C 2.496094 -5.265625 2.21875 -5.648438 1.5625 -5.648438 C 1.496094 -5.648438 1.441406 -5.605469 1.417969 -5.539062 L 0.527344 -2.800781 C -0.109375 -0.679688 0.648438 0.636719 2.164062 0 C 2.394531 0 2.59375 -0.175781 2.78125 -0.449219 C 2.921875 0.0234375 3.339844 0.175781 3.988281 0.175781 C 5.078125 0.175781 5.636719 -0.636719 6.042969 -1.890625 C 6.109375 -2.121094 6.035156 -2.296875 5.792969 -2.449219 Z M 5.792969 -2.449219 "/></g></g></g><g fill="#333333" fill-opacity="1"><g transform="translate(16.670902, 21.594611)"><g><path d="M 3.375 -2.449219 C 3.339844 -2.472656 3.296875 -2.460938 3.285156 -2.40625 C 2.8125 -0.867188 2.308594 -0.738281 1.957031 -0.738281 C 1.515625 -0.738281 1.230469 -1.054688 1.496094 -1.890625 C 1.945312 -3.273438 2.132812 -3.757812 2.441406 -4.746094 C 2.5625 -4.746094 2.679688 -4.757812 2.792969 -4.757812 L 3.484375 -4.78125 C 3.59375 -4.78125 3.671875 -4.847656 3.636719 -4.945312 C 3.527344 -5.265625 3.273438 -5.582031 2.792969 -5.582031 L 2.679688 -5.582031 C 2.691406 -5.636719 2.714844 -5.683594 2.726562 -5.738281 C 3.066406 -6.945312 2.738281 -7.320312 2.066406 -7.320312 C 2 -7.320312 1.945312 -7.277344 1.921875 -7.210938 C 1.726562 -6.527344 1.570312 -6 1.429688 -5.539062 L 1.21875 -5.539062 C 0.945312 -5.539062 0.757812 -5.550781 0.570312 -5.550781 C 0.460938 -5.550781 0.363281 -5.507812 0.382812 -5.40625 C 0.449219 -5.097656 0.671875 -4.671875 1.066406 -4.683594 L 1.152344 -4.683594 C 0.945312 -4.066406 0.738281 -3.429688 0.429688 -2.472656 C -0.0664062 -0.878906 0.382812 0.175781 1.570312 0.175781 C 2.660156 0.175781 3.210938 -0.636719 3.625 -1.890625 C 3.691406 -2.109375 3.617188 -2.285156 3.375 -2.449219 Z M 3.375 -2.449219 "/></g></g></g><g fill="#333333" fill-opacity="1"><g transform="translate(19.528219, 21.594611)"><g><path d="M 2.242188 -5.988281 C 2.320312 -5.96875 2.394531 -6.011719 2.429688 -6.078125 L 2.746094 -6.914062 C 2.945312 -7.417969 2.660156 -7.890625 2.152344 -8.023438 L 1.988281 -8.066406 C 1.902344 -8.089844 1.824219 -8.042969 1.800781 -7.980469 L 1.484375 -7.144531 C 1.296875 -6.660156 1.582031 -6.199219 2.066406 -6.042969 Z M 1.078125 0.175781 C 2.164062 0.175781 2.714844 -0.636719 3.132812 -1.890625 C 3.199219 -2.109375 3.121094 -2.285156 2.878906 -2.449219 C 2.847656 -2.472656 2.800781 -2.460938 2.792969 -2.40625 C 2.320312 -0.867188 1.8125 -0.738281 1.460938 -0.738281 C 1.023438 -0.738281 0.957031 -1.054688 1.21875 -1.890625 C 1.441406 -2.582031 1.660156 -3.273438 1.855469 -3.96875 C 2.210938 -5.1875 1.867188 -5.550781 1.199219 -5.550781 C 1.132812 -5.550781 1.078125 -5.507812 1.054688 -5.441406 C 0.757812 -4.449219 0.484375 -3.460938 0.152344 -2.472656 C -0.375 -0.878906 -0.0117188 0.175781 1.078125 0.175781 Z M 1.078125 0.175781 "/></g></g></g><g fill="#333333" fill-opacity="1"><g transform="translate(21.891001, 21.594611)"><g><path d="M 0.8125 0.164062 C 0.890625 0.175781 0.957031 0.132812 0.976562 0.0429688 L 2.273438 -4.746094 L 3.265625 -4.78125 C 3.375 -4.78125 3.449219 -4.847656 3.417969 -4.945312 C 3.308594 -5.265625 3.054688 -5.582031 2.570312 -5.582031 L 2.503906 -5.582031 L 2.617188 -6 C 2.867188 -6.714844 3.023438 -6.8125 3.472656 -6.8125 L 4.175781 -6.8125 C 4.273438 -6.8125 4.351562 -6.890625 4.351562 -6.988281 C 4.308594 -7.582031 4.054688 -7.890625 3.394531 -7.890625 C 2.40625 -7.890625 1.824219 -7.375 1.484375 -6.351562 L 1.265625 -5.539062 L 1 -5.539062 C 0.726562 -5.539062 0.539062 -5.550781 0.351562 -5.550781 C 0.242188 -5.550781 0.144531 -5.507812 0.164062 -5.40625 C 0.230469 -5.097656 0.449219 -4.671875 0.847656 -4.683594 L 1.03125 -4.691406 L 0.03125 -1 C -0.109375 -0.460938 0.199219 0.0664062 0.8125 0.164062 Z M 0.8125 0.164062 "/></g></g></g><g fill="#333333" fill-opacity="1"><g transform="translate(24.352692, 21.594611)"><g><path d="M 5.792969 -2.449219 C 5.757812 -2.472656 5.714844 -2.460938 5.703125 -2.417969 C 5.230469 -0.867188 4.726562 -0.738281 4.375 -0.738281 C 3.933594 -0.738281 3.878906 -1.054688 4.132812 -1.890625 L 4.78125 -4.066406 C 5.132812 -5.265625 4.859375 -5.648438 4.199219 -5.648438 C 4.132812 -5.648438 4.078125 -5.605469 4.054688 -5.539062 L 3.066406 -2.472656 C 2.976562 -2.210938 2.914062 -1.976562 2.855469 -1.757812 C 2.625 -1.054688 2.199219 -0.472656 1.855469 -0.558594 C 1.285156 -0.835938 1.429688 -1.671875 1.714844 -2.660156 L 2.144531 -4.066406 C 2.496094 -5.265625 2.21875 -5.648438 1.5625 -5.648438 C 1.496094 -5.648438 1.441406 -5.605469 1.417969 -5.539062 L 0.527344 -2.800781 C -0.109375 -0.679688 0.648438 0.636719 2.164062 0 C 2.394531 0 2.59375 -0.175781 2.78125 -0.449219 C 2.921875 0.0234375 3.339844 0.175781 3.988281 0.175781 C 5.078125 0.175781 5.636719 -0.636719 6.042969 -1.890625 C 6.109375 -2.121094 6.035156 -2.296875 5.792969 -2.449219 Z M 5.792969 -2.449219 "/></g></g></g><g fill="#333333" fill-opacity="1"><g transform="translate(29.627742, 21.594611)"><g><path d="M 1.351562 0.175781 C 2.441406 0.175781 2.988281 -0.636719 3.40625 -1.890625 C 3.472656 -2.109375 3.394531 -2.285156 3.152344 -2.449219 C 3.121094 -2.472656 3.078125 -2.460938 3.066406 -2.40625 C 2.59375 -0.867188 2.089844 -0.738281 1.738281 -0.738281 C 1.296875 -0.738281 1.230469 -1.054688 1.496094 -1.890625 L 2.914062 -6.59375 C 3.253906 -7.804688 2.921875 -8.175781 2.253906 -8.175781 C 2.1875 -8.175781 2.132812 -8.132812 2.109375 -8.066406 L 0.429688 -2.472656 C -0.242188 -0.339844 0.132812 0.175781 1.351562 0.175781 Z M 1.351562 0.175781 "/></g></g></g><g fill="#333333" fill-opacity="1"><g transform="translate(32.263742, 21.594611)"><g/></g></g><g fill="#333333" fill-opacity="1"><g transform="translate(35.011163, 21.594611)"><g><path d="M 1.144531 0 C 1.230469 0.0117188 1.308594 -0.0234375 1.328125 -0.109375 L 1.988281 -2.570312 L 3.800781 -2.738281 C 3.878906 -2.746094 3.945312 -2.800781 3.945312 -2.878906 C 3.945312 -3.375 3.460938 -3.726562 2.835938 -3.660156 L 2.253906 -3.59375 L 3.035156 -6.515625 L 3.066406 -6.660156 C 3.582031 -6.726562 4.164062 -6.792969 4.484375 -6.804688 L 5.1875 -6.824219 C 5.308594 -6.824219 5.386719 -6.921875 5.351562 -7.042969 C 5.230469 -7.460938 4.976562 -7.867188 4.449219 -7.867188 C 3.902344 -7.867188 3.460938 -7.691406 2.417969 -7.691406 L 2.121094 -7.691406 L 1.757812 -7.714844 C 1.636719 -7.738281 1.539062 -7.648438 1.5625 -7.527344 C 1.605469 -7.277344 1.703125 -6.96875 1.878906 -6.769531 L 0.382812 -1.152344 C 0.242188 -0.617188 0.539062 -0.078125 1.144531 0 Z M 1.144531 0 "/></g></g></g><g fill="#333333" fill-opacity="1"><g transform="translate(39.165264, 21.594611)"><g><path d="M 2.1875 0.152344 C 3.484375 0.144531 4.144531 -0.800781 4.660156 -2.5625 C 5.242188 -4.539062 4.496094 -6.089844 3.097656 -5.59375 C 1.835938 -5.691406 1 -4.617188 0.503906 -2.96875 C -0.144531 -0.8125 0.527344 0.429688 2.1875 0.152344 Z M 1.878906 -0.417969 C 1.273438 -0.703125 1.363281 -1.769531 1.679688 -2.835938 C 2.097656 -4.21875 2.386719 -4.921875 2.902344 -5 C 3.867188 -4.988281 3.8125 -3.746094 3.484375 -2.691406 C 2.921875 -0.890625 2.59375 -0.242188 1.878906 -0.417969 Z M 1.878906 -0.417969 "/></g></g></g><g fill="#333333" fill-opacity="1"><g transform="translate(43.989737, 21.594611)"><g><path d="M 2.1875 0.152344 C 3.484375 0.144531 4.144531 -0.800781 4.660156 -2.5625 C 5.242188 -4.539062 4.496094 -6.089844 3.097656 -5.59375 C 1.835938 -5.691406 1 -4.617188 0.503906 -2.96875 C -0.144531 -0.8125 0.527344 0.429688 2.1875 0.152344 Z M 1.878906 -0.417969 C 1.273438 -0.703125 1.363281 -1.769531 1.679688 -2.835938 C 2.097656 -4.21875 2.386719 -4.921875 2.902344 -5 C 3.867188 -4.988281 3.8125 -3.746094 3.484375 -2.691406 C 2.921875 -0.890625 2.59375 -0.242188 1.878906 -0.417969 Z M 1.878906 -0.417969 "/></g></g></g><g fill="#333333" fill-opacity="1"><g transform="translate(48.814209, 21.594611)"><g><path d="M 5.8125 -2.449219 C 5.78125 -2.472656 5.738281 -2.460938 5.726562 -2.417969 C 5.253906 -0.867188 4.746094 -0.738281 4.394531 -0.738281 C 3.957031 -0.738281 3.914062 -1.042969 4.152344 -1.890625 L 5.484375 -6.605469 C 5.824219 -7.804688 5.5625 -8.1875 4.902344 -8.1875 C 4.835938 -8.1875 4.78125 -8.144531 4.757812 -8.078125 L 3.902344 -5.1875 C 3.703125 -5.515625 3.394531 -5.660156 3.097656 -5.59375 C 1.835938 -5.691406 1 -4.617188 0.503906 -2.96875 C -0.164062 -0.726562 0.625 0.648438 2.1875 0 C 2.394531 0.0117188 2.617188 -0.1875 2.8125 -0.484375 C 2.921875 0.0234375 3.328125 0.175781 4.011719 0.175781 C 5.097656 0.175781 5.660156 -0.636719 6.066406 -1.890625 C 6.132812 -2.121094 6.054688 -2.296875 5.8125 -2.449219 Z M 1.878906 -0.558594 C 1.273438 -0.847656 1.363281 -1.769531 1.679688 -2.835938 C 2.097656 -4.21875 2.671875 -4.890625 3.164062 -4.890625 C 3.570312 -4.890625 3.636719 -4.496094 3.496094 -3.847656 L 3.089844 -2.472656 C 3.042969 -2.320312 3 -2.175781 2.96875 -2.042969 C 2.757812 -1.21875 2.265625 -0.460938 1.878906 -0.558594 Z M 1.878906 -0.558594 "/></g></g></g><g clip-path="url(#17dd9512f9)"><g fill="#333333" fill-opacity="1"><g transform="translate(54.111237, 21.594611)"><g><path d="M 4.921875 -2.449219 C 4.890625 -2.472656 4.847656 -2.460938 4.835938 -2.417969 C 4.484375 -1.285156 3.714844 -0.757812 3.078125 -0.605469 C 3.320312 -0.933594 3.550781 -1.417969 3.605469 -2.320312 C 3.636719 -2.988281 3.570312 -4.175781 3.078125 -5.042969 C 3.265625 -5.285156 3.363281 -5.527344 3.40625 -5.746094 C 3.484375 -6.132812 3.253906 -6.242188 2.878906 -6.242188 C 2.484375 -6.242188 2.21875 -5.96875 2.078125 -5.5625 C 1.902344 -5.054688 1.429688 -4.253906 0.308594 -2.273438 C 0.296875 -2.394531 0.296875 -2.515625 0.285156 -2.636719 C 0.273438 -2.738281 0.199219 -2.8125 0.109375 -2.800781 C -0.273438 -2.738281 -0.582031 -2.472656 -0.582031 -1.890625 C -0.582031 -0.703125 0.328125 0.164062 1.976562 0.164062 C 3.40625 0.164062 4.617188 -0.175781 5.175781 -1.890625 C 5.242188 -2.121094 5.164062 -2.296875 4.921875 -2.449219 Z M 1.394531 -0.484375 C 0.890625 -0.484375 0.625 -0.757812 0.484375 -1.21875 L 2.320312 -4.617188 C 3 -2.847656 2.199219 -0.484375 1.394531 -0.484375 Z M 1.394531 -0.484375 "/></g></g></g></g></svg>