<?xml version="1.0" encoding="UTF-8" standalone="no"?> <svg width="64" height="64" viewBox="0 0 64 64" fill="none" xmlns="http://www.w3.org/2000/svg">
<path d="M24.68 56.56L24.21 58.88L21.9 59.34C19.348 59.8502 16.7094 59.721 14.2195 58.9637C11.7296 58.2064 9.46578 56.8447 7.63 55V55C6.16331 53.537 4.99944 51.7991 4.20498 49.8859C3.41052 47.9727 3.00105 45.9216 3 43.85V37.67H9.18C13.3711 37.6703 17.3913 39.3316 20.36 42.29V42.29C22.1968 44.1308 23.5517 46.3957 24.3052 48.8845C25.0587 51.3734 25.1874 54.0096 24.68 56.56V56.56Z" fill="#C4F236"/>
<path d="M24.79 55.89C25.1413 53.6589 25.009 51.3784 24.402 49.2029C23.795 47.0275 22.7275 45.0079 21.2719 43.281C19.8162 41.5541 18.0064 40.1603 15.965 39.1939C13.9236 38.2276 11.6983 37.7113 9.44 37.68C10.126 41.3099 11.6406 44.7325 13.866 47.6811C16.0913 50.6298 18.9673 53.0249 22.27 54.68L24.79 55.89Z" fill="#A1D51C"/>
<path d="M38.73 51.63L32 55L25.27 51.63C21.2838 49.6376 17.9311 46.5748 15.5874 42.7845C13.2436 38.9943 12.0015 34.6264 12 30.17V29.5C11.999 25.6395 12.9293 21.8357 14.7119 18.4114C16.4946 14.9871 19.077 12.0434 22.24 9.83L32 3L41.76 9.83C44.923 12.0434 47.5054 14.9871 49.2881 18.4114C51.0707 21.8357 52.001 25.6395 52 29.5V30.17C51.9985 34.6264 50.7564 38.9943 48.4126 42.7845C46.0689 46.5748 42.7162 49.6376 38.73 51.63V51.63Z" fill="#C4F236"/>
<path d="M43.73 42.63C41.6415 43.6785 39.3369 44.2245 37 44.2245C34.6631 44.2245 32.3585 43.6785 30.27 42.63V42.63C26.2838 40.6376 22.9311 37.5748 20.5874 33.7845C18.2436 29.9943 17.0015 25.6263 17 21.17V20.5C16.9922 18.1666 17.3292 15.8449 18 13.61C14.13 17.9982 11.9962 23.649 12 29.5V30.17C12.0015 34.6263 13.2436 38.9943 15.5874 42.7845C17.9311 46.5748 21.2838 49.6376 25.27 51.63L32 55L38.73 51.63C41.6674 50.1607 44.272 48.1042 46.3826 45.5877C48.4931 43.0713 50.0647 40.1484 51 37C48.9646 39.3303 46.4954 41.2424 43.73 42.63V42.63Z" fill="#A1D51C"/>
<path d="M35 61H29L30.57 4.83997C30.57 4.46071 30.7207 4.09699 30.9888 3.82881C31.257 3.56063 31.6207 3.40997 32 3.40997C32.3793 3.40997 32.743 3.56063 33.0112 3.82881C33.2793 4.09699 33.43 4.46071 33.43 4.83997L35 61Z" fill="#7AB92D"/>
<path d="M34.79 33.21L43.59 26.81C43.6964 26.7325 43.7864 26.6349 43.8551 26.5226C43.9237 26.4103 43.9695 26.2856 43.9899 26.1556C44.0104 26.0256 44.005 25.8928 43.9741 25.7649C43.9432 25.637 43.8875 25.5164 43.81 25.41C43.7325 25.3037 43.6348 25.2136 43.5226 25.145C43.4103 25.0763 43.2856 25.0305 43.1556 25.0101C43.0256 24.9896 42.8928 24.995 42.7649 25.0259C42.637 25.0568 42.5164 25.1125 42.41 25.19L33.61 31.59C33.5034 31.6673 33.4131 31.7649 33.3443 31.8772C33.2756 31.9895 33.2296 32.1142 33.2092 32.2443C33.1887 32.3744 33.1942 32.5072 33.2252 32.6352C33.2563 32.7632 33.3123 32.8838 33.39 32.99C33.4831 33.1174 33.605 33.221 33.7458 33.2922C33.8866 33.3635 34.0422 33.4004 34.2 33.4C34.4118 33.4008 34.6184 33.3342 34.79 33.21V33.21Z" fill="#7AB92D"/>
<path d="M21.59 25.19C21.4836 25.1125 21.363 25.0568 21.2351 25.0259C21.1072 24.995 20.9744 24.9896 20.8444 25.0101C20.7144 25.0305 20.5897 25.0763 20.4774 25.145C20.3652 25.2136 20.2675 25.3037 20.19 25.41C20.1125 25.5164 20.0568 25.637 20.0259 25.7649C19.995 25.8928 19.9896 26.0256 20.01 26.1556C20.0305 26.2856 20.0763 26.4103 20.1449 26.5226C20.2136 26.6349 20.3036 26.7325 20.41 26.81L29.21 33.21C29.3816 33.3342 29.5882 33.4008 29.8 33.4C29.9578 33.4004 30.1134 33.3635 30.2542 33.2922C30.395 33.221 30.5169 33.1174 30.61 32.99C30.6877 32.8838 30.7437 32.7632 30.7748 32.6352C30.8058 32.5072 30.8113 32.3744 30.7908 32.2443C30.7704 32.1142 30.7244 31.9895 30.6557 31.8772C30.5869 31.7649 30.4966 31.6673 30.39 31.59L21.59 25.19Z" fill="#7AB92D"/>
<path d="M45.82 37.43C45.6686 37.2128 45.4372 37.0646 45.1767 37.0177C44.9161 36.9708 44.6476 37.0292 44.43 37.18L34 44.41C33.8257 44.5317 33.6947 44.7058 33.626 44.907C33.5573 45.1082 33.5545 45.326 33.6181 45.5289C33.6816 45.7318 33.8081 45.9091 33.9793 46.0352C34.1505 46.1613 34.3574 46.2295 34.57 46.23C34.7739 46.2295 34.9728 46.1667 35.14 46.05L45.58 38.82C45.7956 38.6671 45.9419 38.435 45.9868 38.1745C46.0318 37.9141 45.9718 37.6464 45.82 37.43Z" fill="#7AB92D"/>
<path d="M19.57 37.18C19.4628 37.0969 19.3397 37.0364 19.2084 37.0024C19.077 36.9683 18.9401 36.9613 18.806 36.9819C18.6718 37.0024 18.5433 37.05 18.4281 37.1218C18.313 37.1937 18.2137 37.2881 18.1362 37.3996C18.0588 37.511 18.0048 37.637 17.9776 37.77C17.9504 37.9029 17.9506 38.04 17.9781 38.1729C18.0055 38.3058 18.0598 38.4317 18.1375 38.5429C18.2152 38.6542 18.3147 38.7484 18.43 38.82L28.87 46.05C29.0372 46.1667 29.2361 46.2295 29.44 46.23C29.6517 46.2274 29.8572 46.1577 30.0268 46.0308C30.1963 45.904 30.3212 45.7266 30.3835 45.5242C30.4458 45.3218 30.4422 45.1048 30.3733 44.9046C30.3044 44.7044 30.1737 44.5312 30 44.41L19.57 37.18Z" fill="#7AB92D"/>
<path d="M34.48 21.19L39.65 16.76C39.8516 16.5876 39.9764 16.3422 39.997 16.0778C40.0177 15.8133 39.9324 15.5516 39.76 15.35C39.5876 15.1484 39.3422 15.0236 39.0778 15.003C38.8134 14.9823 38.5516 15.0676 38.35 15.24L33.18 19.67C32.9799 19.8438 32.8569 20.0899 32.8382 20.3543C32.8194 20.6187 32.9064 20.8797 33.08 21.08C33.1728 21.1885 33.2877 21.2759 33.4171 21.3362C33.5465 21.3966 33.6873 21.4286 33.83 21.43C34.0683 21.43 34.2989 21.3449 34.48 21.19V21.19Z" fill="#7AB92D"/>
<path d="M25.65 15.24C25.4484 15.0676 25.1866 14.9823 24.9222 15.003C24.6578 15.0236 24.4124 15.1484 24.24 15.35C24.0676 15.5516 23.9823 15.8133 24.003 16.0778C24.0236 16.3422 24.1484 16.5876 24.35 16.76L29.52 21.19C29.7011 21.3449 29.9317 21.43 30.17 21.43C30.3128 21.4286 30.4535 21.3966 30.5829 21.3362C30.7123 21.2759 30.8272 21.1885 30.92 21.08C31.0936 20.8797 31.1806 20.6187 31.1618 20.3543C31.1431 20.0899 31.0201 19.8438 30.82 19.67L25.65 15.24Z" fill="#7AB92D"/>
<path d="M47 53H53V55C53 56.5913 52.3679 58.1174 51.2426 59.2426C50.1174 60.3679 48.5913 61 47 61H41V59C41 57.4087 41.6321 55.8826 42.7574 54.7574C43.8826 53.6321 45.4087 53 47 53V53Z" fill="#C4F236"/>
<path d="M50 58H46C45.4696 58 44.9609 57.7893 44.5858 57.4142C44.2107 57.0392 44 56.5305 44 56C43.9994 55.1484 44.18 54.3064 44.53 53.53C43.4776 54.0054 42.5848 54.7744 41.9586 55.7446C41.3325 56.7149 40.9996 57.8453 41 59V61H47C48.1548 61.0004 49.2851 60.6676 50.2554 60.0414C51.2257 59.4153 51.9946 58.5224 52.47 57.47C51.6936 57.82 50.8516 58.0007 50 58V58Z" fill="#A1D51C"/>
<path d="M26 59.29L21 54.22V49C21 48.7348 20.8946 48.4804 20.7071 48.2929C20.5196 48.1054 20.2652 48 20 48C19.7348 48 19.4804 48.1054 19.2929 48.2929C19.1054 48.4804 19 48.7348 19 49V52.24L16.73 50V44.74C16.73 44.4748 16.6246 44.2204 16.4371 44.0329C16.2496 43.8454 15.9952 43.74 15.73 43.74C15.4648 43.74 15.2104 43.8454 15.0229 44.0329C14.8354 44.2204 14.73 44.4748 14.73 44.74V48L11.73 45.05V41.2C11.73 40.9348 11.6246 40.6804 11.4371 40.4929C11.2496 40.3054 10.9952 40.2 10.73 40.2C10.4648 40.2 10.2104 40.3054 10.0229 40.4929C9.83536 40.6804 9.73 40.9348 9.73 41.2V43L5.12 38.37C4.93264 38.1838 4.67919 38.0792 4.415 38.0792C4.15081 38.0792 3.89736 38.1838 3.71 38.37V38.37C3.61627 38.463 3.54188 38.5736 3.49111 38.6954C3.44034 38.8173 3.4142 38.948 3.4142 39.08C3.4142 39.212 3.44034 39.3427 3.49111 39.4646C3.54188 39.5865 3.61627 39.6971 3.71 39.79L8.36 44.44H6.54C6.27478 44.44 6.02043 44.5454 5.83289 44.7329C5.64536 44.9204 5.54 45.1748 5.54 45.44C5.54 45.7052 5.64536 45.9596 5.83289 46.1471C6.02043 46.3347 6.27478 46.44 6.54 46.44H10.36L13.36 49.44H10.07C9.80478 49.44 9.55043 49.5454 9.36289 49.7329C9.17536 49.9204 9.07 50.1748 9.07 50.44C9.07 50.7052 9.17536 50.9596 9.36289 51.1471C9.55043 51.3347 9.80478 51.44 10.07 51.44H15.31L17.56 53.69H14.31C14.0448 53.69 13.7904 53.7954 13.6029 53.9829C13.4154 54.1704 13.31 54.4248 13.31 54.69C13.31 54.9552 13.4154 55.2096 13.6029 55.3971C13.7904 55.5847 14.0448 55.69 14.31 55.69H19.56L24.63 60.76C24.8249 60.9417 25.0841 61.0385 25.3504 61.0291C25.6167 61.0197 25.8683 60.9049 26.05 60.71C26.2317 60.5151 26.3285 60.256 26.3191 59.9897C26.3097 59.7234 26.1949 59.4717 26 59.29Z" fill="#7AB92D"/>
<path d="M49.85 55.47C49.7806 55.3582 49.6897 55.2612 49.5827 55.1846C49.4757 55.108 49.3546 55.0533 49.2264 55.0235C49.0982 54.9938 48.9654 54.9897 48.8356 55.0114C48.7058 55.0331 48.5816 55.0802 48.47 55.15L42.31 59H39C38.7348 59 38.4804 59.1054 38.2929 59.2929C38.1054 59.4805 38 59.7348 38 60C38 60.2652 38.1054 60.5196 38.2929 60.7071C38.4804 60.8947 38.7348 61 39 61H42.6C42.7872 61.0006 42.9709 60.9487 43.13 60.85L49.53 56.85C49.6418 56.7806 49.7388 56.6897 49.8154 56.5827C49.892 56.4757 49.9468 56.3547 49.9765 56.2265C50.0062 56.0982 50.0104 55.9654 49.9886 55.8356C49.9669 55.7058 49.9198 55.5816 49.85 55.47Z" fill="#7AB92D"/>
</svg>
